<!DOCTYPE svg PUBLIC "-//W3C//DTD SVG 1.1//EN" "http://www.w3.org/Graphics/SVG/1.1/DTD/svg11.dtd">
<!-- Uploaded to: SVG Repo, www.svgrepo.com, Transformed by: SVG Repo Mixer Tools -->
<svg fill="#000000" height="64px" width="64px" version="1.1" id="Layer_1" xmlns="http://www.w3.org/2000/svg" xmlns:xlink="http://www.w3.org/1999/xlink" viewBox="0 0 512 512" xml:space="preserve">
<g id="SVGRepo_bgCarrier" stroke-width="0"/>
<g id="SVGRepo_tracerCarrier" stroke-linecap="round" stroke-linejoin="round"/>
<g id="SVGRepo_iconCarrier"> <g> <g> <circle cx="139.13" cy="211.478" r="16.696"/> </g> </g> <g> <g> <circle cx="272.696" cy="211.478" r="16.696"/> </g> </g> <g> <g> <path d="M205.913,228.174c-9.217,0-16.696,7.473-16.696,16.696v33.391c0,9.223,7.479,16.696,16.696,16.696 c9.217,0,16.696-7.473,16.696-16.696V244.87C222.609,235.647,215.13,228.174,205.913,228.174z"/> </g> </g> <g> <g> <path d="M473.043,478.609h-93.261l38.283-38.283c6.521-6.516,6.521-17.092,0-23.609c-6.521-6.521-17.087-6.521-23.609,0 l-61.892,61.892h-78.296c61.094-38.443,101.905-106.291,101.905-183.652V16.696C356.174,7.473,348.695,0,339.478,0 c-22.555,0-43.522,8.793-58.729,24.429c-9.804,9.539-19.054,20.604-22.891,36.788H153.967 c-3.827-16.163-13.021-27.174-22.576-36.462C115.859,8.793,94.891,0,72.348,0c-9.217,0-16.696,7.473-16.696,16.696v261.723 c-20.231,15.246-33.391,39.395-33.391,66.625v77.49c27.66-3.912,66.783-34.962,66.783-60.794c0-9.223,7.479-16.696,16.696-16.696 s16.696,7.473,16.696,16.696c0,44.208-55.036,90.633-100.174,94.256v39.309c0,9.223,7.479,16.696,16.696,16.696 c112.098,0,189.424,0,434.087,0c9.217,0,16.696-7.473,16.696-16.696C489.739,486.082,482.261,478.609,473.043,478.609z M105.739,261.565c-5.718,0-11.299,0.583-16.696,1.683v-51.77c0-27.619,22.468-50.087,50.087-50.087 c18.805,0,35.848,10.375,44.511,27.081c4.402,8.489,12.935,13.766,22.261,13.766c9.337,0,17.87-5.277,22.283-13.777 c8.652-16.696,25.707-27.07,44.511-27.07c27.619,0,50.087,22.468,50.087,50.087v83.478c0,95.622-74.612,183.652-189.587,183.652 c34.123-27.569,56.022-69.688,56.022-116.87v-16.696C189.217,299.011,151.771,261.565,105.739,261.565z"/> </g> </g> </g>
</svg>